<?xml version="1.0" encoding="iso-8859-1"?>
<!-- Generator: Adobe Illustrator 18.0.0, SVG Export Plug-In . SVG Version: 6.00 Build 0)  -->
<!DOCTYPE svg PUBLIC "-//W3C//DTD SVG 1.1//EN" "http://www.w3.org/Graphics/SVG/1.1/DTD/svg11.dtd">
<svg version="1.1" id="Capa_1" xmlns="http://www.w3.org/2000/svg" xmlns:xlink="http://www.w3.org/1999/xlink" x="0px" y="0px"
	 viewBox="0 0 487.756 487.756" style="enable-background:new 0 0 487.756 487.756;" xml:space="preserve">
<g>
	<path d="M194.185,306.341c-3.297-15.019-12.37-27.654-25.549-35.577c-13.179-7.922-28.594-10.009-43.404-5.876l-17.267,4.818
		c-4.788,1.336-7.586,6.3-6.25,11.088c1.336,4.788,6.304,7.585,11.088,6.25l3.572-0.997c-1.368,4.17-2.101,8.575-2.101,13.079
		c0,23.159,18.841,42,42,42c10.774,0,20.889-4.126,28.505-11.163c1.861,2.921,3.968,5.692,6.311,8.269
		c1.776,1.954,4.214,2.946,6.662,2.946c2.16,0,4.328-0.773,6.052-2.341c3.678-3.344,3.949-9.036,0.605-12.713
		C199.337,320.546,195.802,313.706,194.185,306.341z M156.274,323.127c-13.233,0-24-10.767-24-24c0-7.079,3.13-13.745,8.468-18.286
		c6.492,0.095,12.871,1.895,18.621,5.351c8.894,5.347,15.017,13.873,17.242,24.009c0.087,0.398,0.186,0.792,0.281,1.188
		C172.602,318.598,164.803,323.127,156.274,323.127z"/>
	<path d="M178.734,263.117c0.721,0.177,1.443,0.262,2.154,0.262c4.047,0,7.725-2.75,8.733-6.855l7-28.499
		c1.186-4.827-1.767-9.701-6.594-10.887c-4.831-1.188-9.702,1.767-10.887,6.594l-7,28.499
		C170.955,257.057,173.907,261.932,178.734,263.117z"/>
	<path d="M379.79,269.707l-17.267-4.818c-14.812-4.134-30.226-2.046-43.404,5.876c-13.179,7.923-22.252,20.558-25.549,35.577
		c-1.617,7.364-5.152,14.205-10.223,19.783c-3.344,3.678-3.073,9.37,0.605,12.713c1.724,1.568,3.891,2.341,6.052,2.341
		c2.447,0,4.886-0.992,6.662-2.946c2.343-2.577,4.45-5.347,6.311-8.269c7.616,7.037,17.73,11.163,28.505,11.163
		c23.159,0,42-18.841,42-42c0-4.504-0.734-8.909-2.101-13.079l3.572,0.997c4.79,1.335,9.752-1.462,11.088-6.25
		S384.578,271.043,379.79,269.707z M331.482,323.127c-8.53,0-16.328-4.529-20.612-11.738c0.095-0.396,0.194-0.79,0.281-1.188
		c2.225-10.136,8.348-18.662,17.242-24.009c5.749-3.456,12.129-5.256,18.621-5.351c5.337,4.541,8.467,11.207,8.467,18.286
		C355.482,312.36,344.715,323.127,331.482,323.127z"/>
	<path d="M298.134,256.523c1.008,4.106,4.686,6.855,8.733,6.855c0.711,0,1.433-0.084,2.154-0.262
		c4.827-1.186,7.779-6.06,6.594-10.887l-7-28.499c-1.185-4.827-6.06-7.78-10.887-6.594c-4.827,1.186-7.779,6.06-6.594,10.887
		L298.134,256.523z"/>
	<path d="M468.678,175l-1.118-9.507c5.159-14.1,31.704-91.598,14.427-149.19c-1.189-3.962-4.935-6.607-9.056-6.403
		c-40.308,1.95-79.321,20.825-112.823,54.585c-25.022,25.215-38.137,49.649-38.683,50.677c-0.033,0.063-2.804,6.099-6.081,13.243
		c-47.458-6.399-95.47-6.399-142.928-0.001l-5.853-12.77c-0.073-0.16-13.894-25.935-38.916-51.15
		C94.146,30.725,55.132,11.85,14.824,9.899c-4.147-0.201-7.867,2.442-9.056,6.403c-17.277,57.592,9.268,135.091,14.427,149.19
		l-1.118,9.506c-3.177,27.003,3.892,53.787,19.914,75.667c-4.586,8.254-6.089,18.038-3.914,27.553
		c0.055,0.24,0.12,0.478,0.194,0.712l18.138,57.272c13.395,42.297,41.036,78.351,77.832,101.521
		c18.069,11.378,34.362,17.112,48.571,17.112c1.883,0,3.726-0.109,5.535-0.311c4.731,1.653,9.72,2.642,14.843,2.901
		c10.769,12.867,26.759,20.44,43.684,20.44c16.922,0,32.914-7.573,43.692-20.44c5.124-0.26,10.113-1.248,14.844-2.901
		c1.809,0.202,3.651,0.311,5.535,0.311c14.208-0.001,30.504-5.735,48.571-17.112c36.795-23.169,64.437-59.224,77.832-101.521
		l18.138-57.272c0.074-0.234,0.139-0.472,0.194-0.712c2.175-9.515,0.672-19.299-3.914-27.553
		C464.787,228.786,471.855,202.002,468.678,175z M36.954,177.102l1.373-11.669c0.17-1.451-0.016-2.925-0.541-4.289
		C37.48,160.35,8.608,84.313,21.191,28.429c9.331,0.97,18.504,2.94,27.503,5.898c7.952,5.659,74.38,55.33,73.044,132.941
		c-0.096,5.564-2.606,10.833-6.888,14.456c-18.584,15.721-46.349,40.004-63.552,55.115
		C39.556,219.258,34.464,198.265,36.954,177.102z M222.775,453.634c2.903-1.174,5.689-2.604,8.333-4.264h25.525
		c2.645,1.662,5.432,3.093,8.336,4.268c-6.215,4-13.517,6.23-21.094,6.23C236.292,459.867,228.988,457.636,222.775,453.634z
		 M243.878,405.083c-4.503-5.724-10.253-10.454-16.883-13.752c-0.853-0.424-2.252-1.049-5.084-1.959h43.933
		c-2.832,0.911-4.231,1.535-5.084,1.959C254.131,394.628,248.381,399.359,243.878,405.083z M435.203,273.88l-18.016,56.889
		c-12.111,38.244-37.064,70.819-70.263,91.724c-5.325,3.353-10.438,6.123-15.299,8.313l52.74-67.507
		c2.501-3.202,5.457-6.006,8.786-8.337c17.384-12.168,26.913-32.848,24.869-53.969l-1.692-17.484
		c-0.479-4.948-4.878-8.577-9.825-8.091c-4.948,0.479-8.57,4.877-8.091,9.825l1.692,17.484c1.419,14.672-5.2,29.037-17.276,37.49
		c-4.792,3.354-9.047,7.393-12.647,12l-31.311,40.078c-1.637-7.436-4.993-14.55-10.067-20.669
		c-3.172-3.826-8.847-4.356-12.673-1.184s-4.356,8.846-1.184,12.673c9.276,11.187,9.515,27.619,0.571,39.071l-3.003,3.844
		c-6.439,8.242-16.128,13.15-26.582,13.467c-13.037,0.402-25.076-6.436-31.477-17.591c3.035-6.216,8.06-11.344,14.324-14.461
		c0.048-0.024,1.22-0.597,5.403-1.791c7.475-2.134,12.696-9.046,12.696-16.809c0-8.78-6.515-16.047-14.96-17.273l6.665-77.426
		c0.426-4.952-3.243-9.313-8.195-9.739c-4.95-0.424-9.313,3.243-9.739,8.195l-6.78,78.768h-19.982l-6.78-78.768
		c-0.427-4.953-4.797-8.62-9.739-8.195c-4.952,0.426-8.621,4.787-8.195,9.739l6.665,77.426c-8.445,1.226-14.96,8.493-14.96,17.273
		c0,7.763,5.221,14.675,12.696,16.809c4.182,1.194,5.354,1.767,5.402,1.791c6.264,3.117,11.289,8.244,14.324,14.46
		c-6.406,11.158-18.48,18.003-31.476,17.592c-10.455-0.317-20.144-5.226-26.583-13.468l-3.009-3.852
		c-8.938-11.453-8.696-27.878,0.577-39.063c3.173-3.827,2.643-9.5-1.184-12.673c-3.828-3.174-9.5-2.643-12.673,1.184
		c-5.074,6.119-8.43,13.233-10.067,20.669l-31.311-40.078c-3.601-4.608-7.855-8.646-12.648-12.001
		c-12.076-8.453-18.695-22.818-17.275-37.49l1.692-17.484c0.479-4.947-3.144-9.346-8.091-9.825
		c-4.946-0.485-9.346,3.144-9.825,8.091l-1.692,17.484c-2.044,21.121,7.485,41.801,24.869,53.969
		c3.329,2.331,6.285,5.136,8.786,8.337l52.741,67.508c-4.862-2.19-9.975-4.961-15.301-8.314
		c-33.198-20.905-58.151-53.479-70.263-91.724L52.552,273.88c-1.563-7.382,0.963-15.025,6.641-20.017
		c16.551-14.554,47.3-41.494,67.283-58.398c8.242-6.973,13.075-17.138,13.259-27.888c0.566-32.899-9.759-65.575-29.986-95.404
		c1.594,1.506,3.182,3.044,4.759,4.626c22.141,22.207,34.551,44.302,35.818,46.61l16.373,35.722
		c2.071,4.519,7.412,6.501,11.932,4.432c4.519-2.071,6.502-7.413,4.432-11.932l-2.795-6.097c42.267-5.242,84.953-5.242,127.22,0
		c-1.666,3.634-2.796,6.097-2.796,6.097c-2.071,4.519-0.087,9.86,4.432,11.932c4.518,2.069,9.86,0.087,11.932-4.432l16.374-35.725
		c1.37-2.496,15.318-27.254,40.39-50.957c-20.104,29.755-30.363,62.33-29.799,95.127c0.185,10.75,5.018,20.915,13.26,27.888
		c19.982,16.905,50.732,43.844,67.283,58.398C434.24,258.855,436.767,266.498,435.203,273.88z M436.457,236.837
		c-17.203-15.11-44.968-39.394-63.551-55.114c-4.282-3.622-6.792-8.891-6.888-14.456c-0.587-34.147,11.522-66.886,35.991-97.308
		c16.118-20.039,32.616-32.451,36.817-35.464c8.732-2.919,17.982-5.034,27.74-6.062c12.583,55.885-16.29,131.917-16.594,132.707
		c-0.527,1.365-0.713,2.838-0.542,4.292l1.373,11.67C453.291,198.265,448.199,219.258,436.457,236.837z"/>
</g>
<g>
</g>
<g>
</g>
<g>
</g>
<g>
</g>
<g>
</g>
<g>
</g>
<g>
</g>
<g>
</g>
<g>
</g>
<g>
</g>
<g>
</g>
<g>
</g>
<g>
</g>
<g>
</g>
<g>
</g>
</svg>
