<?xml version="1.0" encoding="iso-8859-1"?>
<!-- Generator: Adobe Illustrator 19.0.0, SVG Export Plug-In . SVG Version: 6.00 Build 0)  -->
<svg version="1.1" id="Capa_1" xmlns="http://www.w3.org/2000/svg" xmlns:xlink="http://www.w3.org/1999/xlink" x="0px" y="0px"
	 viewBox="0 0 511.999 511.999" style="enable-background:new 0 0 511.999 511.999;" xml:space="preserve">
<g>
	<g>
		<g>
			<path d="M34.988,140.098c1.76,0,3.528-0.616,4.953-1.871c6.857-6.038,14.685-10.694,23.265-13.836
				c3.89-1.425,5.887-5.731,4.463-9.621c-1.424-3.89-5.732-5.887-9.621-4.464c-10.333,3.785-19.76,9.391-28.019,16.663
				c-3.109,2.737-3.41,7.476-0.672,10.585C30.839,139.238,32.909,140.098,34.988,140.098z"/>
			<path d="M510.785,184.633c-2.959-8.131-10.461-13.079-19.093-12.626h-0.001l-297.235,15.836
				c-6.885,0.366-12.795,4.812-15.056,11.327c-2.261,6.514-0.376,13.665,4.802,18.217l66.545,58.52
				c0.84,0.739,1.461,1.659,1.835,2.669c0.004,0.01,0.006,0.021,0.01,0.031c0.003,0.009,0.008,0.016,0.011,0.024
				c0.365,1.016,0.481,2.122,0.312,3.23l-13.361,87.603c-1.04,6.815,2.112,13.505,8.031,17.042c2.692,1.608,5.686,2.404,8.67,2.404
				c3.578,0,7.14-1.145,10.145-3.404l20.354-15.31l5.83,16.018c2.939,8.069,9.726,13.86,18.157,15.488
				c1.565,0.302,3.13,0.45,4.678,0.45c6.796,0,13.272-2.854,17.938-8.062l162.151-180.92l8.766-6.593
				C511.189,201.377,513.745,192.763,510.785,184.633z M322.19,384.081c-2.214,2.468-5.347,3.523-8.604,2.896
				c-3.256-0.629-5.773-2.776-6.907-5.892l-7.393-20.314l134.411-101.103L322.19,384.081z M285.829,352.123
				c-0.021,0.016-0.042,0.031-0.062,0.047l-28.382,21.349c-0.674,0.507-1.381,0.546-2.106,0.112
				c-0.723-0.433-1.025-1.073-0.898-1.906l13.361-87.605c0.16-1.048,0.233-2.095,0.241-3.134l49.292-17.941
				c3.892-1.417,5.898-5.72,4.482-9.612c-1.416-3.892-5.717-5.897-9.612-4.482l-49.292,17.94c-0.674-0.792-1.404-1.547-2.2-2.247
				l-66.546-58.521c-0.632-0.556-0.813-1.241-0.537-2.036c0.276-0.796,0.843-1.223,1.685-1.268l285.413-15.206l-134.431,48.929
				c-3.892,1.417-5.898,5.72-4.482,9.612c1.108,3.045,3.984,4.935,7.048,4.935c0.852,0,1.718-0.146,2.565-0.454l134.43-48.928
				L285.829,352.123z"/>
			<path d="M206.424,286.956l-43.768,16.029c-22.738,8.327-47.357,7.302-69.324-2.888c-9.097-4.22-16.954-10.304-23.164-17.807
				l6.442,2.988c14.501,6.727,30.757,7.404,45.77,1.907c15.453-5.659,27.607-17.077,34.224-32.15
				c6.614-15.064,6.783-31.755,0.477-46.994c-5.63-13.607-16.11-24.627-29.51-31.031c-13.407-6.406-28.564-7.631-42.68-3.451
				c-16.533,4.898-30.162,16.646-37.393,32.234c-6.338,13.665-8.721,28.474-7.091,43.07c-9.341-8.056-16.527-18.399-20.887-30.302
				c-6.743-18.411-5.912-38.346,2.339-56.133c1.743-3.758,0.11-8.216-3.647-9.959c-3.759-1.743-8.215-0.11-9.959,3.648
				c-9.936,21.422-10.937,45.429-2.816,67.603c7.452,20.348,21.765,36.913,40.625,47.183c7.791,18.989,22.233,34.114,40.957,42.8
				c14.154,6.564,29.248,9.865,44.398,9.865c12.254,0,24.545-2.16,36.394-6.499l43.768-16.029c3.89-1.425,5.887-5.731,4.463-9.621
				C214.621,287.53,210.313,285.532,206.424,286.956z M58.096,260.157c-5.091-15.878-4.049-32.836,3.01-48.051
				c5.418-11.684,15.641-20.49,28.046-24.164c21.673-6.419,45.42,4.93,54.071,25.835c4.729,11.43,4.604,23.94-0.352,35.23
				c-4.959,11.297-14.069,19.853-25.648,24.094c-11.251,4.121-23.432,3.613-34.301-1.429L58.096,260.157z"/>
		</g>
	</g>
</g>
<g>
</g>
<g>
</g>
<g>
</g>
<g>
</g>
<g>
</g>
<g>
</g>
<g>
</g>
<g>
</g>
<g>
</g>
<g>
</g>
<g>
</g>
<g>
</g>
<g>
</g>
<g>
</g>
<g>
</g>
</svg>
